<svg xmlns="http://www.w3.org/2000/svg" xmlns:xlink="http://www.w3.org/1999/xlink" width="512" zoomAndPan="magnify" viewBox="0 0 384 383.999986" height="512" preserveAspectRatio="xMidYMid meet" version="1.0"><path fill="#f9c5c7" d="M 254.804688 78.464844 C 246.144531 87.152344 232.078125 87.171875 223.390625 78.511719 C 214.703125 69.847656 214.683594 55.78125 223.347656 47.097656 C 232.007812 38.410156 246.074219 38.390625 254.761719 47.050781 C 263.449219 55.714844 263.46875 69.777344 254.804688 78.464844 Z M 161.03125 159.40625 C 159.996094 169.792969 173.558594 172.210938 177.652344 161.238281 C 199.5 118.0625 242.8125 121.441406 271.976562 153.964844 C 285.832031 168.578125 310.558594 144.863281 299.457031 127.796875 C 268.738281 73.757812 168.5 88.882812 161.03125 159.40625 Z M 161.03125 159.40625 " fill-opacity="1" fill-rule="nonzero"/><path fill="#ffc697" d="M 100.507812 85.394531 C 106.128906 96.296875 101.847656 109.695312 90.945312 115.316406 C 80.042969 120.941406 66.644531 116.660156 61.019531 105.757812 C 55.398438 94.855469 59.679688 81.457031 70.582031 75.832031 C 81.484375 70.210938 94.882812 74.492188 100.507812 85.394531 Z M 148.90625 199.429688 C 158.484375 203.59375 164.929688 191.417969 155.738281 184.167969 C 121.304688 150.167969 137.761719 109.960938 177.644531 92.136719 C 195.796875 83.410156 180.773438 52.613281 161.128906 57.96875 C 100.28125 70.695312 84.046875 170.761719 148.90625 199.429688 Z M 148.90625 199.429688 " fill-opacity="1" fill-rule="nonzero"/><path fill="#ddc3e3" d="M 59.945312 234.425781 C 72.046875 232.40625 83.496094 240.578125 85.515625 252.679688 C 87.535156 264.777344 79.367188 276.226562 67.265625 278.246094 C 55.164062 280.269531 43.714844 272.097656 41.695312 259.996094 C 39.675781 247.894531 47.847656 236.449219 59.945312 234.425781 Z M 183.308594 223.210938 C 190.203125 215.367188 180.578125 205.507812 170.867188 212.039062 C 127.96875 234.433594 94.71875 206.472656 89.9375 163.050781 C 87.175781 143.101562 53.265625 147.988281 52.355469 168.332031 C 45.875 230.152344 136.183594 276.203125 183.308594 223.210938 Z M 183.308594 223.210938 " fill-opacity="1" fill-rule="nonzero"/><path fill="#cbd3ad" d="M 189.4375 318.617188 C 191.210938 306.476562 202.492188 298.074219 214.632812 299.851562 C 226.769531 301.625 235.171875 312.90625 233.398438 325.042969 C 231.621094 337.183594 220.34375 345.585938 208.203125 343.808594 C 196.0625 342.035156 187.664062 330.753906 189.4375 318.617188 Z M 216.46875 197.722656 C 211.109375 188.761719 198.777344 194.910156 202.03125 206.15625 C 210.238281 253.847656 173.453125 276.960938 130.644531 268.238281 C 110.804688 264.765625 105.09375 298.550781 124.183594 305.632812 C 181.066406 330.699219 252.519531 258.792969 216.46875 197.722656 Z M 216.46875 197.722656 " fill-opacity="1" fill-rule="nonzero"/><path fill="#99c1de" d="M 309.179688 221.054688 C 298.164062 215.65625 293.613281 202.347656 299.015625 191.332031 C 304.414062 180.316406 317.722656 175.765625 328.738281 181.164062 C 339.753906 186.566406 344.304688 199.875 338.902344 210.890625 C 333.503906 221.90625 320.195312 226.457031 309.179688 221.054688 Z M 202.339844 158.359375 C 192.167969 160.726562 194.25 174.34375 205.957031 174.6875 C 253.871094 181.449219 264.632812 223.542969 243.242188 261.632812 C 233.871094 279.457031 264.292969 295.226562 276.871094 279.214844 C 318.128906 232.71875 271.503906 142.703125 202.339844 158.359375 Z M 202.339844 158.359375 " fill-opacity="1" fill-rule="nonzero"/></svg>