<svg xmlns="http://www.w3.org/2000/svg" width="512" height="512" viewBox="0 0 384 384" fill="none">
  <path fill="#F07078" d="M254.805 78.465c-8.66 8.687-22.726 8.707-31.414-.953-8.688-8.664-8.707-22.73.957-31.414 8.66-8.687 22.726-8.707 31.414.953 8.688 8.665 8.707 22.73-.957 31.414ZM161.031 159.406c-1.035 10.387 12.527 12.805 16.621 1.832 21.848-43.176 65.16-39.797 94.324-7.274 13.856 14.614 38.582-9.101 27.481-26.168C268.738 73.758 168.5 88.883 161.031 159.406Z"/>
  <path fill="#FF9D4D" d="M100.508 85.395c5.621 10.902 1.34 24.3-9.563 29.922-10.902 5.625-24.3 1.344-29.926-9.559-5.621-10.902-1.34-24.3 9.563-29.922 10.902-5.621 24.3-1.344 29.926 9.559ZM148.906 199.43c9.578 4.164 16.023-8.012 6.832-15.262-34.434-34-17.977-74.207 21.906-92.031 18.152-8.727 3.129-39.523-16.516-34.168C100.281 70.695 84.047 170.762 148.906 199.43Z"/>
  <path fill="#B87FD0" d="M59.945 234.426c12.102-2.02 23.551 6.152 25.57 18.254 2.02 12.098-6.148 23.547-18.25 25.566-12.101 2.024-23.551-6.148-25.57-18.25-2.02-12.102 6.152-23.547 18.25-25.57ZM183.309 223.211c6.894-7.844-3.731-17.704-13.442-11.172-42.898 22.394-76.148-5.567-80.93-48.989-2.761-19.95-36.672-15.063-37.582 5.281-6.48 61.82 83.828 107.871 130.954 54.88Z"/>
  <path fill="#9DB852" d="M189.438 318.617c1.773-12.141 13.054-20.543 25.195-18.766 12.14 1.774 20.543 13.055 18.766 25.191-1.777 12.141-13.055 20.543-25.195 18.766-12.141-1.773-20.544-13.054-18.766-25.191ZM216.469 197.723c-5.359-8.961-17.691-2.812-14.437 8.434 8.207 47.691-28.578 70.804-71.387 62.082-19.84-3.473-25.551 30.312-6.461 37.394 56.883 25.066 128.336-46.841 92.285-107.91Z"/>
  <path fill="#4DA3E0" d="M309.18 221.055c-11.016-5.399-15.566-18.707-10.164-29.723 5.4-11.016 18.708-15.566 29.724-10.168 11.015 5.402 15.566 18.711 10.164 29.726-5.4 11.016-18.708 15.566-29.724 10.165ZM202.34 158.36c-10.172 2.367-8.09 15.984 3.617 16.328 47.914 6.762 58.675 48.855 37.285 86.945-9.371 17.825 21.051 33.594 33.629 17.582 41.258-46.496-5.367-136.511-74.531-120.855Z"/>
</svg>
